# xmcd CD database file
#
# Track frame offsets:
#	150
#	10894
#	27337
#	37274
#	52390
#	64055
#	77878
#	98089
#	115241
#	126793
#	142921
#	158608
#	170581
#	187388
#
# Disc length: 2660 seconds
#
# Revision: 0
# Processed by: cddbd v1.5.1PL0 Copyright (c) Steve Scherf et al.
# Submitted via: CDex 1.51
#
DISCID=c70a620e
DTITLE=Richard Smith - Welcome to Smithville
DYEAR=1997
DGENRE=Country
TTITLE0=Muskat Ramble
TTITLE1=You'll be glad you did
TTITLE2=Honkin'
TTITLE3=I wonder in whose arms
TTITLE4=Mountain melody
TTITLE5=that's alright
TTITLE6=Variations on a theme by Mozart
TTITLE7=Lullabye for Madeleine
TTITLE8=Yankee Doodle Boy
TTITLE9=Crazy
TTITLE10=Limehouse blues
TTITLE11=Choros de Saudade
TTITLE12=Dream a little dream
TTITLE13=If my friends could see me now
EXTD=YEAR: 1997
EXTT0=
EXTT1=
EXTT2=
EXTT3=
EXTT4=
EXTT5=
EXTT6=
EXTT7=
EXTT8=
EXTT9=
EXTT10=
EXTT11=
EXTT12=
EXTT13=
PLAYORDER=
